<svg width="152" height="152" fill="none" xmlns="http://www.w3.org/2000/svg"><path fill="#000" d="M0 0h152v152H0z"/><path d="M92.1 43.8c2.994 0 5.524 1.929 6.477 4.6h23.846c.952-2.671 3.482-4.6 6.477-4.6 3.804 0 6.9 3.095 6.9 6.9 0 3.803-3.096 6.9-6.9 6.9-2.995 0-5.525-1.93-6.477-4.6H98.574c-.952 2.67-3.482 4.6-6.477 4.6a6.908 6.908 0 01-6.9-6.9c0-3.805 3.099-6.9 6.903-6.9zm36.8 9.2c1.267 0 2.3-1.031 2.3-2.3 0-1.27-1.033-2.3-2.3-2.3s-2.3 1.03-2.3 2.3c0 1.269 1.033 2.3 2.3 2.3zm-36.8 0c1.267 0 2.3-1.031 2.3-2.3 0-1.27-1.033-2.3-2.3-2.3s-2.3 1.03-2.3 2.3c0 1.269 1.032 2.3 2.3 2.3z" fill="#00B2FF"/><path d="M73.7 58.023V43.799c0-.611.24-1.196.673-1.626l9.2-9.2A2.294 2.294 0 0185.2 32.3h7.323c.953-2.67 3.483-4.6 6.477-4.6 3.804 0 6.9 3.096 6.9 6.9 0 3.804-3.096 6.9-6.9 6.9-2.994 0-5.524-1.93-6.477-4.6h-6.37L78.3 44.752v13.27c2.67.953 4.6 3.483 4.6 6.477 0 3.804-3.096 6.9-6.9 6.9a6.908 6.908 0 01-6.9-6.9c0-2.994 1.93-5.524 4.6-6.476zM99 36.9a2.302 2.302 0 002.299-2.3c0-1.27-1.033-2.3-2.3-2.3s-2.3 1.03-2.3 2.3c0 1.27 1.033 2.3 2.3 2.3zM76 66.8c1.266 0 2.3-1.031 2.3-2.3 0-1.27-1.034-2.3-2.3-2.3-1.268 0-2.3 1.03-2.3 2.3 0 1.269 1.032 2.3 2.3 2.3zm-43.7 0c1.063 0 2.056.26 2.956.692l3.944-3.945V41.5c0-.612.241-1.196.674-1.627l23.018-23.018A6.787 6.787 0 0162.2 13.9c0-3.804 3.096-6.9 6.9-6.9 3.804 0 6.9 3.096 6.9 6.9 0 3.804-3.096 6.9-6.9 6.9a6.787 6.787 0 01-2.956-.692L43.8 42.452v22.047a2.29 2.29 0 01-.674 1.626l-4.618 4.619c.432.899.692 1.892.692 2.955 0 3.804-3.096 6.9-6.9 6.9a6.908 6.908 0 01-6.9-6.9c0-3.804 3.096-6.9 6.9-6.9zm36.8-50.6c1.267 0 2.3-1.03 2.3-2.3 0-1.27-1.033-2.3-2.3-2.3s-2.3 1.03-2.3 2.3c0 1.27 1.033 2.3 2.3 2.3zM32.3 76c1.267 0 2.3-1.031 2.3-2.3 0-1.27-1.033-2.3-2.3-2.3S30 72.43 30 73.7c0 1.269 1.033 2.3 2.3 2.3zM11.6 39.623V30c0-.612.242-1.196.674-1.626l16.1-16.1A2.294 2.294 0 0130 11.6h11.923C42.875 8.93 45.405 7 48.4 7c3.804 0 6.9 3.096 6.9 6.9 0 3.804-3.096 6.9-6.9 6.9-2.995 0-5.525-1.93-6.477-4.6h-10.97L16.2 30.952v8.67c2.67.953 4.6 3.483 4.6 6.477 0 3.805-3.096 6.9-6.9 6.9A6.908 6.908 0 017 46.1c0-2.994 1.93-5.524 4.6-6.476zM48.4 16.2c1.267 0 2.3-1.03 2.3-2.3 0-1.27-1.033-2.3-2.3-2.3s-2.3 1.03-2.3 2.3c0 1.27 1.033 2.3 2.3 2.3zM13.9 48.4c1.267 0 2.3-1.03 2.3-2.3 0-1.27-1.033-2.3-2.3-2.3s-2.3 1.03-2.3 2.3c0 1.27 1.033 2.3 2.3 2.3zm29.898 83.223V98.575c-2.668-.952-4.598-3.482-4.598-6.477 0-3.804 3.096-6.9 6.9-6.9 2.995 0 5.525 1.93 6.477 4.6h23.846c.952-2.67 3.482-4.6 6.477-4.6s5.525 1.93 6.477 4.6h13.271l8.544-8.544a6.792 6.792 0 01-.692-2.955c0-3.804 3.096-6.9 6.9-6.9 3.804 0 6.9 3.096 6.9 6.9 0 3.804-3.096 6.9-6.9 6.9a6.782 6.782 0 01-2.955-.693l-9.219 9.219a2.293 2.293 0 01-1.626.674H89.377c-.952 2.67-3.482 4.6-6.477 4.6s-5.525-1.93-6.477-4.6H52.574a6.893 6.893 0 01-4.176 4.176v33.048c2.67.953 4.6 3.483 4.6 6.477 0 3.804-3.096 6.9-6.9 6.9a6.909 6.909 0 01-6.9-6.9c0-2.994 1.93-5.524 4.6-6.477zM117.4 80.599c1.267 0 2.3-1.03 2.3-2.3 0-1.27-1.033-2.3-2.3-2.3s-2.3 1.03-2.3 2.3c0 1.27 1.033 2.3 2.3 2.3zm-34.5 13.8c1.267 0 2.3-1.03 2.3-2.3 0-1.27-1.033-2.3-2.3-2.3s-2.3 1.03-2.3 2.3c0 1.27 1.033 2.3 2.3 2.3zm-36.8 45.999c1.267 0 2.3-1.031 2.3-2.3 0-1.27-1.033-2.3-2.3-2.3s-2.3 1.03-2.3 2.3c0 1.269 1.033 2.3 2.3 2.3zm0-46c1.267 0 2.3-1.03 2.3-2.3 0-1.27-1.033-2.3-2.3-2.3s-2.3 1.03-2.3 2.3c0 1.27 1.033 2.3 2.3 2.3z" fill="#00B2FF"/><path d="M55.3 53.423v-7.324c0-.611.242-1.195.674-1.626l27.618-27.618A6.787 6.787 0 0182.9 13.9c0-3.804 3.096-6.9 6.9-6.9 2.995 0 5.525 1.93 6.477 4.6h9.623a2.3 2.3 0 012.3 2.3v5.948l8.545 8.544a6.782 6.782 0 012.955-.692c3.804 0 6.9 3.096 6.9 6.9 0 3.804-3.096 6.9-6.9 6.9a6.908 6.908 0 01-6.9-6.9c0-1.063.26-2.056.692-2.956l-9.218-9.218a2.292 2.292 0 01-.674-1.626v-4.6h-7.323c-.952 2.67-3.482 4.6-6.477 4.6a6.787 6.787 0 01-2.955-.692L59.9 47.052v6.37c2.67.953 4.6 3.483 4.6 6.477 0 3.804-3.096 6.9-6.9 6.9a6.908 6.908 0 01-6.9-6.9c0-2.994 1.93-5.524 4.6-6.476zM119.7 36.9c1.267 0 2.3-1.03 2.3-2.3 0-1.27-1.033-2.3-2.3-2.3s-2.3 1.03-2.3 2.3c0 1.27 1.033 2.3 2.3 2.3zM89.8 16.2c1.267 0 2.3-1.03 2.3-2.3 0-1.27-1.033-2.3-2.3-2.3s-2.3 1.03-2.3 2.3c0 1.27 1.033 2.3 2.3 2.3zm-32.2 46c1.267 0 2.3-1.031 2.3-2.3 0-1.27-1.033-2.3-2.3-2.3s-2.3 1.03-2.3 2.3c0 1.269 1.033 2.3 2.3 2.3z" fill="#00B2FF"/><path d="M62.2 71.4c2.995 0 5.525 1.929 6.477 4.6h27.07l13.127-13.127a2.293 2.293 0 011.626-.674h24.348l5.552-5.552V37.852l-17.745-17.744a6.782 6.782 0 01-2.955.692 6.908 6.908 0 01-6.9-6.9c0-3.804 3.096-6.9 6.9-6.9 3.804 0 6.9 3.096 6.9 6.9 0 1.063-.26 2.056-.692 2.955l18.418 18.418c.432.43.674 1.015.674 1.627v20.7a2.29 2.29 0 01-.674 1.625l-6.9 6.9a2.294 2.294 0 01-1.626.674h-24.348L98.326 79.925a2.294 2.294 0 01-1.626.674H68.677c-.952 2.67-3.482 4.6-6.477 4.6a6.908 6.908 0 01-6.9-6.9c0-3.804 3.096-6.9 6.9-6.9zm57.5-59.8c-1.267 0-2.3 1.03-2.3 2.3 0 1.27 1.033 2.3 2.3 2.3s2.3-1.03 2.3-2.3c0-1.27-1.033-2.3-2.3-2.3zM62.2 80.599c1.267 0 2.3-1.03 2.3-2.3 0-1.27-1.033-2.3-2.3-2.3s-2.3 1.03-2.3 2.3c0 1.27 1.033 2.3 2.3 2.3zM13.9 62.2c1.063 0 2.056.26 2.955.691l8.545-8.544v-13.27c-2.67-.953-4.6-3.483-4.6-6.477 0-3.805 3.096-6.9 6.9-6.9 3.804 0 6.9 3.096 6.9 6.9 0 2.994-1.93 5.524-4.6 6.476V55.3a2.29 2.29 0 01-.674 1.626l-9.218 9.219c.432.899.692 1.893.692 2.955 0 2.995-1.93 5.525-4.6 6.477v1.77l17.726 17.727A2.29 2.29 0 0134.6 96.7v2.723c2.67.952 4.6 3.482 4.6 6.477 0 2.994-1.93 5.524-4.6 6.476v5.449c2.67.952 4.6 3.482 4.6 6.477 0 3.804-3.096 6.9-6.9 6.9a6.909 6.909 0 01-6.9-6.9c0-2.995 1.93-5.525 4.6-6.477v-5.449c-2.67-.952-4.6-3.482-4.6-6.476 0-2.995 1.93-5.525 4.6-6.477V97.65L12.274 79.925A2.29 2.29 0 0111.6 78.3v-2.723C8.93 74.624 7 72.094 7 69.099c0-3.804 3.096-6.9 6.9-6.9zm13.8-25.3c1.267 0 2.3-1.03 2.3-2.3 0-1.27-1.033-2.3-2.3-2.3s-2.3 1.03-2.3 2.3c0 1.27 1.033 2.3 2.3 2.3zm4.6 89.698c1.267 0 2.3-1.03 2.3-2.3 0-1.269-1.033-2.3-2.3-2.3a2.303 2.303 0 00-2.3 2.3c0 1.27 1.033 2.3 2.3 2.3zm0-18.399c1.267 0 2.3-1.031 2.3-2.3 0-1.27-1.033-2.3-2.3-2.3s-2.3 1.03-2.3 2.3c0 1.269 1.033 2.3 2.3 2.3zm-18.4-36.8c1.267 0 2.3-1.03 2.3-2.3 0-1.27-1.033-2.3-2.3-2.3s-2.3 1.03-2.3 2.3c0 1.27 1.033 2.3 2.3 2.3z" fill="#00B2FF"/></svg>